# xmcd
#
# Track frame offsets:
#   150
#   17678
#   37963
#   55351
#   72831
#   90384
#   107828
#   125987
#   138994
#   156605
#   174893
#   190503
#   206484
#   226150
#   241721
#   258917
#
# Disc length: 3683 seconds
#
# Revision: 0
# Processed by: cddbd v1.5.1PL0 Copyright (c) Steve Scherf et al.
# Submitted via: Media_Universe 3.0
#
DISCID=d00e6110
DTITLE=LONESTAR - Let's Be Us Again
DYEAR=2004
DGENRE=Country
TTITLE0=County Fair
TTITLE1=Class Reunion (that used to be us)
TTITLE2=Let's Be us Again
TTITLE3=That Gets Me
TTITLE4=Women Rule The World
TTITLE5=What I Miss The Most
TTITLE6=Let Them Be Little
TTITLE7=T.G.I.F
TTITLE8=Summertime
TTITLE9=Now
TTITLE10=Mr Mom
TTITLE11=From There To Here
TTITLE12=Somebody's Someone
TTITLE13=Tell Her That You Love Her
TTITLE14=I Pray
TTITLE15=Walking In Memphis
EXTD=
EXTT0=
EXTT1=
EXTT2=
EXTT3=
EXTT4=
EXTT5=
EXTT6=
EXTT7=
EXTT8=
EXTT9=
EXTT10=
EXTT11=
EXTT12=
EXTT13=
EXTT14=
EXTT15=
PLAYORDER=
